# xmcd
#
# Track frame offsets:
#	150
#	16049
#	30957
#	35127
#	55750
#	63570
#	78988
#	87854
#	102843
#	103975
#	118485
#	126215
#	141948
#	163570
#	177141
#	194388
#	202627
#
# Disc length: 2884 seconds
#
# Revision: 0
# Processed by: cddbd v1.5.1PL2 Copyright (c) Steve Scherf et al.
# Submitted via: dBpowerAMP V4.0
#
DISCID=e00b4211
DTITLE=John Berry - Songs and Stories
DYEAR=2002
DGENRE=Country
TTITLE0=She's Taken A Shine
TTITLE1=What's In It For Me
TTITLE2=Story - Salvation
TTITLE3=Salvaction
TTITLE4=Story - Standing on the Edge of Good-Bye
TTITLE5=Standing on the Edge of Good-Bye
TTITLE6=Story - Lost Song
TTITLE7=I Gave My Heart
TTITLE8=Story - My Wife Robin
TTITLE9=Kiss Me In The Car
TTITLE10=Story - Inspiration
TTITLE11=Your Love Amazes Me
TTITLE12=Story - Songwriting Camp
TTITLE13=Sanctuary
TTITLE14=How Much Do You Love Me
TTITLE15=Story - My Dad
TTITLE16=Forty Again
EXTD=
EXTT0=
EXTT1=
EXTT2=
EXTT3=
EXTT4=
EXTT5=
EXTT6=
EXTT7=
EXTT8=
EXTT9=
EXTT10=
EXTT11=
EXTT12=
EXTT13=
EXTT14=
EXTT15=
EXTT16=
PLAYORDER=
